{
    "accessors": [
        {
            "bufferView": 0,
            "componentType": 5126,
            "count": 24,
            "max": [
                500,
                167.15371704101562,
                -2
            ],
            "min": [
                0,
                0,
                -4
            ],
            "type": "VEC3"
        },
        {
            "bufferView": 1,
            "componentType": 5126,
            "count": 24,
            "type": "VEC3"
        },
        {
            "bufferView": 2,
            "componentType": 5126,
            "count": 24,
            "type": "VEC2"
        },
        {
            "bufferView": 3,
            "componentType": 5125,
            "count": 36,
            "type": "SCALAR"
        }
    ],
    "asset": {
        "generator": "Luxion KeyShot",
        "version": "2.0"
    },
    "bufferViews": [
        {
            "buffer": 0,
            "byteLength": 288,
            "byteOffset": 0,
            "byteStride": 12
        },
        {
            "buffer": 0,
            "byteLength": 288,
            "byteOffset": 288,
            "byteStride": 12
        },
        {
            "buffer": 0,
            "byteLength": 192,
            "byteOffset": 576,
            "byteStride": 8
        },
        {
            "buffer": 0,
            "byteLength": 144,
            "byteOffset": 768
        }
    ],
    "buffers": [
        {
            "byteLength": 912,
            "uri": "AKOTEST resources/AKOTEST.bin"
        }
    ],
    "cameras": [
        {
            "name": "active",
            "perspective": {
                "aspectRatio": 1,
                "yfov": 0.6911154697478635,
                "zfar": 1162.0654296875,
                "znear": 741.7012939453125
            },
            "type": "perspective"
        },
        {
            "name": "Perspective",
            "perspective": {
                "aspectRatio": 1,
                "yfov": 0.6911120076384465,
                "zfar": 599.425537109375,
                "znear": 292.7010498046875
            },
            "type": "perspective"
        },
        {
            "name": "Top",
            "orthographic": {
                "xmag": 179.9980010986328,
                "ymag": 179.9980010986328,
                "zfar": 185.1300048828125,
                "znear": 183.1300048828125
            },
            "type": "orthographic"
        },
        {
            "name": "Front",
            "orthographic": {
                "xmag": 35.70029830932617,
                "ymag": 35.70029830932617,
                "zfar": 247.36602783203125,
                "znear": 80.2123031616211
            },
            "type": "orthographic"
        },
        {
            "name": "Right",
            "orthographic": {
                "xmag": 179.97500610351562,
                "ymag": 179.97500610351562,
                "zfar": 525.0089721679688,
                "znear": 25.00897216796875
            },
            "type": "orthographic"
        }
    ],
    "images": [
        {
            "uri": "AKOTEST resources/KS_AKO.png"
        }
    ],
    "materials": [
        {
            "doubleSided": true,
            "pbrMetallicRoughness": {
                "baseColorTexture": {
                    "index": 0
                },
                "metallicFactor": 0,
                "roughnessFactor": 0.5
            }
        }
    ],
    "meshes": [
        {
            "name": "Default-mesh",
            "primitives": [
                {
                    "attributes": {
                        "NORMAL": 1,
                        "POSITION": 0,
                        "TEXCOORD_0": 2
                    },
                    "indices": 3,
                    "material": 0,
                    "mode": 4
                }
            ]
        }
    ],
    "nodes": [
        {
            "camera": 0,
            "matrix": [
                0.7601920362053338,
                -1.8525110156986102e-07,
                -0.6496984265748926,
                0,
                -0.24119752741145167,
                0.92853471623865,
                -0.28221803224814523,
                0,
                0.6032676100730896,
                0.3712455630302429,
                0.705864667892456,
                0,
                574.2404174804688,
                354.3824768066406,
                671.9008178710938,
                1
            ],
            "name": "active"
        },
        {
            "camera": 1,
            "matrix": [
                0.9477724029683817,
                -1.5779838521967626e-07,
                -0.3189474442153624,
                0,
                -0.0857721536978448,
                0.9631616841651105,
                -0.2548778291775466,
                0,
                0.3071979977499369,
                0.2689229818297436,
                0.9128580503135356,
                0,
                136.12399291992188,
                140.26599214927188,
                401.80885928139037,
                1
            ],
            "name": "Perspective"
        },
        {
            "camera": 2,
            "matrix": [
                1.0000000000000002,
                0,
                0,
                0,
                0,
                4.500004647834553e-08,
                -0.9999999999999993,
                0,
                0,
                0.9999999999999991,
                4.500004647834552e-08,
                0,
                154.56298828125,
                185.13000414984708,
                99.86496596030686,
                1
            ],
            "name": "Top"
        },
        {
            "camera": 3,
            "matrix": [
                1.0000000000000002,
                0,
                0,
                0,
                0,
                0.9999999999999993,
                4.500004647834553e-08,
                0,
                0,
                -4.500004647834552e-08,
                0.9999999999999991,
                0,
                -250,
                3.9999963904426297,
                163.78916168212882,
                1
            ],
            "name": "Front"
        },
        {
            "camera": 4,
            "matrix": [
                0,
                4.500004647834552e-08,
                -0.9999999999999991,
                0,
                0,
                0.9999999999999991,
                4.500004647834552e-08,
                0,
                1,
                0,
                0,
                0,
                275.00897216796875,
                4,
                83.57685852050781,
                1
            ],
            "name": "Right"
        },
        {
            "mesh": 0,
            "name": "Default"
        },
        {
            "children": [
                5
            ],
            "name": "Default"
        },
        {
            "children": [
                6
            ],
            "matrix": [
                1,
                0,
                0,
                0,
                0,
                4.5000046478345506e-08,
                -0.9999999999999989,
                0,
                0,
                0.9999999999999989,
                4.5000046478345506e-08,
                0,
                -250,
                4,
                83.57685852050781,
                1
            ],
            "name": "ASD"
        },
        {
            "children": [
                7
            ],
            "matrix": [
                0.0010000000474974513,
                0,
                0,
                0,
                0,
                0.0010000000474974513,
                0,
                0,
                0,
                0,
                0.0010000000474974513,
                0,
                0,
                0,
                0,
                1
            ],
            "name": "Default"
        }
    ],
    "samplers": [
        {
            "magFilter": 9729,
            "minFilter": 9987,
            "wrapS": 10497,
            "wrapT": 10497
        }
    ],
    "scenes": [
        {
            "nodes": [
                0,
                1,
                2,
                3,
                4,
                8
            ]
        }
    ],
    "textures": [
        {
            "sampler": 0,
            "source": 0
        }
    ]
}
   