{
    "accessors": [
        {
            "bufferView": 0,
            "componentType": 5126,
            "count": 24,
            "max": [
                500,
                167.15371704101562,
                -2
            ],
            "min": [
                0,
                0,
                -4
            ],
            "type": "VEC3"
        },
        {
            "bufferView": 1,
            "componentType": 5126,
            "count": 24,
            "type": "VEC3"
        },
        {
            "bufferView": 2,
            "componentType": 5126,
            "count": 24,
            "type": "VEC2"
        },
        {
            "bufferView": 3,
            "componentType": 5125,
            "count": 36,
            "type": "SCALAR"
        }
    ],
    "asset": {
        "generator": "Luxion KeyShot",
        "version": "2.0"
    },
    "bufferViews": [
        {
            "buffer": 0,
            "byteLength": 288,
            "byteOffset": 0,
            "byteStride": 12
        },
        {
            "buffer": 0,
            "byteLength": 288,
            "byteOffset": 288,
            "byteStride": 12
        },
        {
            "buffer": 0,
            "byteLength": 192,
            "byteOffset": 576,
            "byteStride": 8
        },
        {
            "buffer": 0,
            "byteLength": 144,
            "byteOffset": 768
        }
    ],
    "buffers": [
        {
            "byteLength": 912,
            "uri": "AKOTEST resources 3/AKOTEST.bin"
        }
    ],
    "cameras": [
        {
            "name": "active",
            "perspective": {
                "aspectRatio": 1,
                "yfov": 0.6911154697478635,
                "zfar": 1448.37353515625,
                "znear": 949.2499389648438
            },
            "type": "perspective"
        },
        {
            "name": "Perspective",
            "perspective": {
                "aspectRatio": 1,
                "yfov": 0.6911120076384465,
                "zfar": 593.8218994140625,
                "znear": 280.93304443359375
            },
            "type": "perspective"
        },
        {
            "name": "Top",
            "orthographic": {
                "xmag": 179.9980010986328,
                "ymag": 179.9980010986328,
                "zfar": 185.1300048828125,
                "znear": 118.53289031982422
            },
            "type": "orthographic"
        },
        {
            "name": "Front",
            "orthographic": {
                "xmag": 35.70029830932617,
                "ymag": 35.70029830932617,
                "zfar": 241.22747802734375,
                "znear": 86.3508529663086
            },
            "type": "orthographic"
        },
        {
            "name": "Right",
            "orthographic": {
                "xmag": 179.97500610351562,
                "ymag": 179.97500610351562,
                "zfar": 525.0089721679688,
                "znear": 25.00897216796875
            },
            "type": "orthographic"
        }
    ],
    "images": [
        {
            "uri": "AKOTEST resources 3/KS_AKO.png"
        }
    ],
    "materials": [
        {
            "doubleSided": true,
            "pbrMetallicRoughness": {
                "baseColorTexture": {
                    "index": 0
                },
                "metallicFactor": 0,
                "roughnessFactor": 0.5
            }
        }
    ],
    "meshes": [
        {
            "name": "Default-mesh",
            "primitives": [
                {
                    "attributes": {
                        "NORMAL": 1,
                        "POSITION": 0,
                        "TEXCOORD_0": 2
                    },
                    "indices": 3,
                    "material": 0,
                    "mode": 4
                }
            ]
        }
    ],
    "nodes": [
        {
            "camera": 0,
            "matrix": [
                0.00411635539158026,
                -1.8241209654573654e-07,
                -0.9999915263934547,
                0,
                -0.2816440134088274,
                0.959518275292577,
                -0.0011595317062574552,
                0,
                0.9595101475715637,
                0.28164640069007874,
                0.003949666861444712,
                0,
                1159.00048828125,
                341.203125,
                4.770836353302002,
                1
            ],
            "name": "active"
        },
        {
            "camera": 1,
            "matrix": [
                0.9477724029683817,
                -1.5779838521967626e-07,
                -0.3189474442153624,
                0,
                -0.0857721536978448,
                0.9631616841651105,
                -0.2548778291775466,
                0,
                0.3071979977499369,
                0.2689229818297436,
                0.9128580503135356,
                0,
                136.12399291992188,
                140.26599214927188,
                401.80885928139037,
                1
            ],
            "name": "Perspective"
        },
        {
            "camera": 2,
            "matrix": [
                1.0000000000000002,
                0,
                0,
                0,
                0,
                4.500004647834553e-08,
                -0.9999999999999993,
                0,
                0,
                0.9999999999999991,
                4.500004647834552e-08,
                0,
                154.56298828125,
                185.13000414984708,
                99.86496596030686,
                1
            ],
            "name": "Top"
        },
        {
            "camera": 3,
            "matrix": [
                1.0000000000000002,
                0,
                0,
                0,
                0,
                0.9999999999999993,
                4.500004647834553e-08,
                0,
                0,
                -4.500004647834552e-08,
                0.9999999999999991,
                0,
                -250,
                3.9999963904426297,
                163.78916168212882,
                1
            ],
            "name": "Front"
        },
        {
            "camera": 4,
            "matrix": [
                0,
                4.500004647834552e-08,
                -0.9999999999999991,
                0,
                0,
                0.9999999999999991,
                4.500004647834552e-08,
                0,
                1,
                0,
                0,
                0,
                275.00897216796875,
                4,
                83.57685852050781,
                1
            ],
            "name": "Right"
        },
        {
            "matrix": [
                1,
                0,
                0,
                0,
                0,
                1,
                0,
                0,
                0,
                0,
                1,
                0,
                0,
                236.35245791761295,
                -99.31482531482854,
                1
            ],
            "mesh": 0,
            "name": "Default"
        },
        {
            "children": [
                5
            ],
            "name": "Default"
        },
        {
            "children": [
                6
            ],
            "matrix": [
                1,
                0,
                0,
                0,
                0,
                0.3873876308951018,
                -0.9219169287031671,
                0,
                0,
                0.9219169287031671,
                0.3873876308951018,
                0,
                -250.00000000000017,
                3.687667714812658,
                78.2130834755708,
                1
            ],
            "name": "ASD"
        },
        {
            "children": [
                7
            ],
            "matrix": [
                0.0010000000474974513,
                0,
                0,
                0,
                0,
                0.0010000000474974513,
                0,
                0,
                0,
                0,
                0.0010000000474974513,
                0,
                0,
                0,
                0,
                1
            ],
            "name": "Default"
        }
    ],
    "samplers": [
        {
            "magFilter": 9729,
            "minFilter": 9987,
            "wrapS": 10497,
            "wrapT": 10497
        }
    ],
    "scenes": [
        {
            "nodes": [
                0,
                1,
                2,
                3,
                4,
                8
            ]
        }
    ],
    "textures": [
        {
            "sampler": 0,
            "source": 0
        }
    ]
}
  