{
    "accessors": [
        {
            "bufferView": 0,
            "componentType": 5126,
            "count": 4,
            "max": [
                500,
                167.15371704101562,
                0
            ],
            "min": [
                0,
                0,
                0
            ],
            "type": "VEC3"
        },
        {
            "bufferView": 1,
            "componentType": 5126,
            "count": 4,
            "type": "VEC3"
        },
        {
            "bufferView": 2,
            "componentType": 5126,
            "count": 4,
            "type": "VEC2"
        },
        {
            "bufferView": 3,
            "componentType": 5125,
            "count": 6,
            "type": "SCALAR"
        }
    ],
    "asset": {
        "generator": "Luxion KeyShot",
        "version": "2.0"
    },
    "bufferViews": [
        {
            "buffer": 0,
            "byteLength": 48,
            "byteOffset": 0,
            "byteStride": 12
        },
        {
            "buffer": 0,
            "byteLength": 48,
            "byteOffset": 48,
            "byteStride": 12
        },
        {
            "buffer": 0,
            "byteLength": 32,
            "byteOffset": 96,
            "byteStride": 8
        },
        {
            "buffer": 0,
            "byteLength": 24,
            "byteOffset": 128
        }
    ],
    "buffers": [
        {
            "byteLength": 152,
            "uri": "AKOTEST resources 4/AKOTEST.bin"
        }
    ],
    "cameras": [
        {
            "name": "active",
            "perspective": {
                "aspectRatio": 1,
                "yfov": 0.6911111421110921,
                "zfar": 1381.810302734375,
                "znear": 876.2735595703125
            },
            "type": "perspective"
        },
        {
            "name": "Perspective",
            "perspective": {
                "aspectRatio": 1,
                "yfov": 0.6911111421110921,
                "zfar": 812.3212280273438,
                "znear": 393.3561706542969
            },
            "type": "perspective"
        },
        {
            "name": "Top",
            "orthographic": {
                "xmag": 90,
                "ymag": 90,
                "zfar": 181.12985229492188,
                "znear": 150.73379516601562
            },
            "type": "orthographic"
        },
        {
            "name": "Front",
            "orthographic": {
                "xmag": 90,
                "ymag": 90,
                "zfar": 461.1495056152344,
                "znear": 296.78271484375
            },
            "type": "orthographic"
        },
        {
            "name": "Right",
            "orthographic": {
                "xmag": 90,
                "ymag": 90,
                "zfar": 525.0091552734375,
                "znear": 25.0091552734375
            },
            "type": "orthographic"
        }
    ],
    "images": [
        {
            "uri": "AKOTEST resources 4/KS_AKO.png"
        }
    ],
    "materials": [
        {
            "doubleSided": true,
            "pbrMetallicRoughness": {
                "baseColorTexture": {
                    "index": 0
                },
                "metallicFactor": 0,
                "roughnessFactor": 0.5
            }
        }
    ],
    "meshes": [
        {
            "name": "Default-mesh",
            "primitives": [
                {
                    "attributes": {
                        "NORMAL": 1,
                        "POSITION": 0,
                        "TEXCOORD_0": 2
                    },
                    "indices": 3,
                    "material": 0,
                    "mode": 4
                }
            ]
        }
    ],
    "nodes": [
        {
            "camera": 0,
            "matrix": [
                0.038334679765921004,
                1.733756221922178e-08,
                -0.9992649411824774,
                0,
                -0.13141207180406014,
                0.9913149859644773,
                -0.005041328175727207,
                0,
                0.9905863404273987,
                0.1315087378025055,
                0.03800174593925476,
                0,
                1359.2586669921875,
                173.24777221679688,
                -50.32998275756836,
                1
            ],
            "name": "active"
        },
        {
            "camera": 1,
            "matrix": [
                0.7804383391255137,
                2.837818097178868e-08,
                -0.6252327557182276,
                0,
                -0.23926805789373332,
                0.9238783264689931,
                -0.29866307832173333,
                0,
                0.577638983531038,
                0.38268634399577406,
                0.7210300734535124,
                0,
                531.4344482421875,
                197.39162239781348,
                215.1612179890777,
                1
            ],
            "name": "Perspective"
        },
        {
            "camera": 2,
            "matrix": [
                1.0000000000000002,
                0,
                0,
                0,
                0,
                4.500004647834553e-08,
                -0.9999999999999993,
                0,
                0,
                0.9999999999999991,
                4.500004647834552e-08,
                0,
                404.5628967285156,
                181.12983630316765,
                16.288101717745597,
                1
            ],
            "name": "Top"
        },
        {
            "camera": 3,
            "matrix": [
                1.0000000000000002,
                0,
                0,
                0,
                0,
                0.9999999999999993,
                4.500004647834553e-08,
                0,
                0,
                -4.500004647834552e-08,
                0.9999999999999991,
                0,
                0,
                -3.6095573704080893e-06,
                80.21230316162101,
                1
            ],
            "name": "Front"
        },
        {
            "camera": 4,
            "matrix": [
                0,
                4.500004647834552e-08,
                -0.9999999999999991,
                0,
                0,
                0.9999999999999991,
                4.500004647834552e-08,
                0,
                1,
                0,
                0,
                0,
                525.0091552734375,
                0,
                0,
                1
            ],
            "name": "Right"
        },
        {
            "matrix": [
                1,
                0,
                0,
                0,
                0,
                0.9833272253255139,
                0.18184490076333823,
                0,
                0,
                -0.18184490076333823,
                0.9833272253255139,
                0,
                0,
                216.57041167063977,
                -9.745678539729853e-06,
                1
            ],
            "mesh": 0,
            "name": "Default"
        },
        {
            "children": [
                5
            ],
            "name": "Default"
        },
        {
            "children": [
                6
            ],
            "matrix": [
                1,
                0,
                0,
                0,
                0,
                4.5000046478345506e-08,
                -0.9999999999999989,
                0,
                0,
                0.9999999999999989,
                4.5000046478345506e-08,
                0,
                0,
                0,
                0,
                1
            ],
            "name": "Untitled"
        },
        {
            "children": [
                7
            ],
            "matrix": [
                0.0010000000474974513,
                0,
                0,
                0,
                0,
                0.0010000000474974513,
                0,
                0,
                0,
                0,
                0.0010000000474974513,
                0,
                0,
                0,
                0,
                1
            ],
            "name": "Default"
        }
    ],
    "samplers": [
        {
            "magFilter": 9729,
            "minFilter": 9987,
            "wrapS": 10497,
            "wrapT": 10497
        }
    ],
    "scenes": [
        {
            "nodes": [
                0,
                1,
                2,
                3,
                4,
                8
            ]
        }
    ],
    "textures": [
        {
            "sampler": 0,
            "source": 0
        }
    ]
}
   