{
    "accessors": [
        {
            "bufferView": 0,
            "componentType": 5126,
            "count": 444,
            "max": [
                512.2326049804688,
                -3.2591185569763184,
                -8.451088905334473
            ],
            "min": [
                162.22959899902344,
                -8.057757377624512,
                -358.4640197753906
            ],
            "type": "VEC3"
        },
        {
            "bufferView": 1,
            "componentType": 5126,
            "count": 444,
            "type": "VEC3"
        },
        {
            "bufferView": 2,
            "componentType": 5125,
            "count": 1692,
            "type": "SCALAR"
        },
        {
            "bufferView": 3,
            "componentType": 5126,
            "count": 303,
            "max": [
                -54.44729995727539,
                27.417163848876953,
                130.8739013671875
            ],
            "min": [
                -63.83473587036133,
                7.417163372039795,
                123.7366943359375
            ],
            "type": "VEC3"
        },
        {
            "bufferView": 4,
            "componentType": 5126,
            "count": 303,
            "type": "VEC3"
        },
        {
            "bufferView": 5,
            "componentType": 5125,
            "count": 966,
            "type": "SCALAR"
        },
        {
            "bufferView": 6,
            "componentType": 5126,
            "count": 298,
            "max": [
                -67.50733947753906,
                27.417163848876953,
                131.361572265625
            ],
            "min": [
                -76.79835510253906,
                7.417163372039795,
                125.08544921875
            ],
            "type": "VEC3"
        },
        {
            "bufferView": 7,
            "componentType": 5126,
            "count": 298,
            "type": "VEC3"
        },
        {
            "bufferView": 8,
            "componentType": 5125,
            "count": 996,
            "type": "SCALAR"
        },
        {
            "bufferView": 9,
            "componentType": 5126,
            "count": 933,
            "max": [
                304.3476257324219,
                27.417163848876953,
                149.242431640625
            ],
            "min": [
                243.75607299804688,
                7.417163372039795,
                91.35546875
            ],
            "type": "VEC3"
        },
        {
            "bufferView": 10,
            "componentType": 5126,
            "count": 933,
            "type": "VEC3"
        },
        {
            "bufferView": 11,
            "componentType": 5125,
            "count": 2904,
            "type": "SCALAR"
        },
        {
            "bufferView": 12,
            "componentType": 5126,
            "count": 7898,
            "max": [
                21.14986801147461,
                27.417163848876953,
                150.2684326171875
            ],
            "min": [
                -260.0564270019531,
                7.417163372039795,
                84.518310546875
            ],
            "type": "VEC3"
        },
        {
            "bufferView": 13,
            "componentType": 5126,
            "count": 7898,
            "type": "VEC3"
        },
        {
            "bufferView": 14,
            "componentType": 5125,
            "count": 27672,
            "type": "SCALAR"
        },
        {
            "bufferView": 15,
            "componentType": 5126,
            "count": 4871,
            "max": [
                230.38619995117188,
                27.417163848876953,
                153.5906982421875
            ],
            "min": [
                46.00020980834961,
                7.417163372039795,
                86.79150390625
            ],
            "type": "VEC3"
        },
        {
            "bufferView": 16,
            "componentType": 5126,
            "count": 4871,
            "type": "VEC3"
        },
        {
            "bufferView": 17,
            "componentType": 5125,
            "count": 17133,
            "type": "SCALAR"
        },
        {
            "bufferView": 18,
            "componentType": 5126,
            "count": 5160,
            "max": [
                513.1875610351562,
                27.417163848876953,
                122.461669921875
            ],
            "min": [
                288.4733581542969,
                7.417163372039795,
                91.5361328125
            ],
            "type": "VEC3"
        },
        {
            "bufferView": 19,
            "componentType": 5126,
            "count": 5160,
            "type": "VEC3"
        },
        {
            "bufferView": 20,
            "componentType": 5125,
            "count": 18108,
            "type": "SCALAR"
        },
        {
            "bufferView": 21,
            "componentType": 5126,
            "count": 240,
            "max": [
                562.2346801757812,
                23.36168098449707,
                41.535396575927734
            ],
            "min": [
                112.2328109741211,
                17.07215118408203,
                -878.4744262695312
            ],
            "type": "VEC3"
        },
        {
            "bufferView": 22,
            "componentType": 5126,
            "count": 240,
            "type": "VEC3"
        },
        {
            "bufferView": 23,
            "componentType": 5125,
            "count": 756,
            "type": "SCALAR"
        },
        {
            "bufferView": 24,
            "componentType": 5126,
            "count": 37,
            "max": [
                512.2326049804688,
                -6.45897102355957,
                -8.464132308959961
            ],
            "min": [
                162.2327880859375,
                -8.257935523986816,
                -358.4640197753906
            ],
            "type": "VEC3"
        },
        {
            "bufferView": 25,
            "componentType": 5126,
            "count": 37,
            "type": "VEC3"
        },
        {
            "bufferView": 26,
            "componentType": 5126,
            "count": 37,
            "type": "VEC2"
        },
        {
            "bufferView": 27,
            "componentType": 5125,
            "count": 105,
            "type": "SCALAR"
        }
    ],
    "asset": {
        "generator": "Luxion KeyShot",
        "version": "2.0"
    },
    "bufferViews": [
        {
            "buffer": 0,
            "byteLength": 5328,
            "byteOffset": 0,
            "byteStride": 12
        },
        {
            "buffer": 0,
            "byteLength": 5328,
            "byteOffset": 5328,
            "byteStride": 12
        },
        {
            "buffer": 0,
            "byteLength": 6768,
            "byteOffset": 10656
        },
        {
            "buffer": 0,
            "byteLength": 3636,
            "byteOffset": 17424,
            "byteStride": 12
        },
        {
            "buffer": 0,
            "byteLength": 3636,
            "byteOffset": 21060,
            "byteStride": 12
        },
        {
            "buffer": 0,
            "byteLength": 3864,
            "byteOffset": 24696
        },
        {
            "buffer": 0,
            "byteLength": 3576,
            "byteOffset": 28560,
            "byteStride": 12
        },
        {
            "buffer": 0,
            "byteLength": 3576,
            "byteOffset": 32136,
            "byteStride": 12
        },
        {
            "buffer": 0,
            "byteLength": 3984,
            "byteOffset": 35712
        },
        {
            "buffer": 0,
            "byteLength": 11196,
            "byteOffset": 39696,
            "byteStride": 12
        },
        {
            "buffer": 0,
            "byteLength": 11196,
            "byteOffset": 50892,
            "byteStride": 12
        },
        {
            "buffer": 0,
            "byteLength": 11616,
            "byteOffset": 62088
        },
        {
            "buffer": 0,
            "byteLength": 94776,
            "byteOffset": 73704,
            "byteStride": 12
        },
        {
            "buffer": 0,
            "byteLength": 94776,
            "byteOffset": 168480,
            "byteStride": 12
        },
        {
            "buffer": 0,
            "byteLength": 110688,
            "byteOffset": 263256
        },
        {
            "buffer": 0,
            "byteLength": 58452,
            "byteOffset": 373944,
            "byteStride": 12
        },
        {
            "buffer": 0,
            "byteLength": 58452,
            "byteOffset": 432396,
            "byteStride": 12
        },
        {
            "buffer": 0,
            "byteLength": 68532,
            "byteOffset": 490848
        },
        {
            "buffer": 0,
            "byteLength": 61920,
            "byteOffset": 559380,
            "byteStride": 12
        },
        {
            "buffer": 0,
            "byteLength": 61920,
            "byteOffset": 621300,
            "byteStride": 12
        },
        {
            "buffer": 0,
            "byteLength": 72432,
            "byteOffset": 683220
        },
        {
            "buffer": 0,
            "byteLength": 2880,
            "byteOffset": 755652,
            "byteStride": 12
        },
        {
            "buffer": 0,
            "byteLength": 2880,
            "byteOffset": 758532,
            "byteStride": 12
        },
        {
            "buffer": 0,
            "byteLength": 3024,
            "byteOffset": 761412
        },
        {
            "buffer": 0,
            "byteLength": 444,
            "byteOffset": 764436,
            "byteStride": 12
        },
        {
            "buffer": 0,
            "byteLength": 444,
            "byteOffset": 764880,
            "byteStride": 12
        },
        {
            "buffer": 0,
            "byteLength": 296,
            "byteOffset": 765324,
            "byteStride": 8
        },
        {
            "buffer": 0,
            "byteLength": 420,
            "byteOffset": 765620
        }
    ],
    "buffers": [
        {
            "byteLength": 766040,
            "uri": "AKOTEST resources 10/AKOTEST.bin"
        }
    ],
    "cameras": [
        {
            "name": "active",
            "perspective": {
                "aspectRatio": 1,
                "yfov": 0.6911111421110921,
                "zfar": 3267.802001953125,
                "znear": 1441.2227783203125
            },
            "type": "perspective"
        },
        {
            "name": "Perspective",
            "perspective": {
                "aspectRatio": 1,
                "yfov": 0.6911111421110921,
                "zfar": 1626.192626953125,
                "znear": 113.97903442382812
            },
            "type": "perspective"
        },
        {
            "name": "Top",
            "orthographic": {
                "xmag": 90,
                "ymag": 90,
                "zfar": 3290.1435546875,
                "znear": 1243.0865478515625
            },
            "type": "orthographic"
        },
        {
            "name": "Front",
            "orthographic": {
                "xmag": 90,
                "ymag": 90,
                "zfar": 2870.650146484375,
                "znear": 2780.650146484375
            },
            "type": "orthographic"
        },
        {
            "name": "Right",
            "orthographic": {
                "xmag": 90,
                "ymag": 90,
                "zfar": 4022.411865234375,
                "znear": 3018.544921875
            },
            "type": "orthographic"
        }
    ],
    "images": [
        {
            "uri": "AKOTEST resources 10/KS_AKO.png"
        }
    ],
    "materials": [
        {
            "alphaMode": "BLEND",
            "doubleSided": true,
            "pbrMetallicRoughness": {
                "baseColorFactor": [
                    0.5,
                    0.5,
                    0.5,
                    0.5
                ],
                "metallicFactor": 0,
                "roughnessFactor": 0.2
            }
        },
        {
            "doubleSided": true,
            "pbrMetallicRoughness": {
                "baseColorFactor": [
                    1,
                    1,
                    1,
                    1
                ],
                "metallicFactor": 0,
                "roughnessFactor": 0.5500000007450581
            }
        },
        {
            "doubleSided": true,
            "pbrMetallicRoughness": {
                "baseColorFactor": [
                    1,
                    1,
                    1,
                    1
                ],
                "metallicFactor": 0,
                "roughnessFactor": 0.5500000007450581
            }
        },
        {
            "doubleSided": true,
            "pbrMetallicRoughness": {
                "baseColorFactor": [
                    1,
                    1,
                    1,
                    1
                ],
                "metallicFactor": 0,
                "roughnessFactor": 0.5500000007450581
            }
        },
        {
            "doubleSided": true,
            "pbrMetallicRoughness": {
                "baseColorFactor": [
                    1,
                    1,
                    1,
                    1
                ],
                "metallicFactor": 0,
                "roughnessFactor": 0.5500000007450581
            }
        },
        {
            "doubleSided": true,
            "pbrMetallicRoughness": {
                "baseColorFactor": [
                    1,
                    1,
                    1,
                    1
                ],
                "metallicFactor": 0,
                "roughnessFactor": 0.5500000007450581
            }
        },
        {
            "doubleSided": true,
            "pbrMetallicRoughness": {
                "baseColorFactor": [
                    1,
                    1,
                    1,
                    1
                ],
                "metallicFactor": 0,
                "roughnessFactor": 0.5500000007450581
            }
        },
        {
            "alphaMode": "BLEND",
            "doubleSided": true,
            "pbrMetallicRoughness": {
                "baseColorFactor": [
                    0.2857462763786316,
                    0.4512820541858673,
                    0.4347285032272339,
                    0.5
                ],
                "metallicFactor": 0,
                "roughnessFactor": 0.2
            }
        },
        {
            "doubleSided": true,
            "pbrMetallicRoughness": {
                "baseColorTexture": {
                    "index": 0
                },
                "metallicFactor": 0,
                "roughnessFactor": 0.5750000029802322
            }
        }
    ],
    "meshes": [
        {
            "name": "Default-mesh",
            "primitives": [
                {
                    "attributes": {
                        "NORMAL": 1,
                        "POSITION": 0
                    },
                    "indices": 2,
                    "material": 0,
                    "mode": 4
                }
            ]
        },
        {
            "name": "Layer 02-mesh",
            "primitives": [
                {
                    "attributes": {
                        "NORMAL": 4,
                        "POSITION": 3
                    },
                    "indices": 5,
                    "material": 1,
                    "mode": 4
                }
            ]
        },
        {
            "name": "Layer 02-mesh",
            "primitives": [
                {
                    "attributes": {
                        "NORMAL": 7,
                        "POSITION": 6
                    },
                    "indices": 8,
                    "material": 2,
                    "mode": 4
                }
            ]
        },
        {
            "name": "Layer 02-mesh",
            "primitives": [
                {
                    "attributes": {
                        "NORMAL": 10,
                        "POSITION": 9
                    },
                    "indices": 11,
                    "material": 3,
                    "mode": 4
                }
            ]
        },
        {
            "name": "Layer 02-mesh",
            "primitives": [
                {
                    "attributes": {
                        "NORMAL": 13,
                        "POSITION": 12
                    },
                    "indices": 14,
                    "material": 4,
                    "mode": 4
                }
            ]
        },
        {
            "name": "Layer 02-mesh",
            "primitives": [
                {
                    "attributes": {
                        "NORMAL": 16,
                        "POSITION": 15
                    },
                    "indices": 17,
                    "material": 5,
                    "mode": 4
                }
            ]
        },
        {
            "name": "Layer 02-mesh",
            "primitives": [
                {
                    "attributes": {
                        "NORMAL": 19,
                        "POSITION": 18
                    },
                    "indices": 20,
                    "material": 6,
                    "mode": 4
                }
            ]
        },
        {
            "name": "Layer 03-mesh",
            "primitives": [
                {
                    "attributes": {
                        "NORMAL": 22,
                        "POSITION": 21
                    },
                    "indices": 23,
                    "material": 7,
                    "mode": 4
                }
            ]
        },
        {
            "name": "Layer 04-mesh",
            "primitives": [
                {
                    "attributes": {
                        "NORMAL": 25,
                        "POSITION": 24,
                        "TEXCOORD_0": 26
                    },
                    "indices": 27,
                    "material": 8,
                    "mode": 4
                }
            ]
        }
    ],
    "nodes": [
        {
            "camera": 0,
            "matrix": [
                0.773535317593641,
                2.5305538997599797e-08,
                -0.6337531538192849,
                0,
                -0.38152043293579463,
                0.7984948113228093,
                -0.46566949178017863,
                0,
                0.5060486197471619,
                0.6020016074180603,
                0.6176639795303345,
                0,
                1589.010009765625,
                1681.7410888671875,
                1841.6834716796875,
                1
            ],
            "name": "active"
        },
        {
            "camera": 1,
            "matrix": [
                0.07325086150930969,
                4.573418201092583e-08,
                -0.9973135221775118,
                0,
                -0.2631672130574882,
                0.9645565352419307,
                -0.01932910818472767,
                0,
                0.9619653224945068,
                0.2638761071358623,
                0.0706546127331255,
                0,
                1180.0673828125,
                37.47086372838809,
                160.96186997232357,
                1
            ],
            "name": "Perspective"
        },
        {
            "camera": 2,
            "matrix": [
                99.99999999999997,
                0,
                0,
                0,
                0,
                0.00045000046478345493,
                -9999.999999999985,
                0,
                0,
                99.99999999999989,
                4.500004647834551e-06,
                0,
                66.91312408447266,
                3144.035399110333,
                28.450962404590676,
                1
            ],
            "name": "Top"
        },
        {
            "camera": 3,
            "matrix": [
                99.99999999999997,
                0,
                0,
                0,
                0,
                9999.999999999985,
                0.00045000046478345493,
                0,
                0,
                -4.500004647834551e-06,
                99.99999999999989,
                0,
                0,
                -0.00012512937484547565,
                2780.649902343747,
                1
            ],
            "name": "Front"
        },
        {
            "camera": 4,
            "matrix": [
                0,
                4.500004647834551e-06,
                -99.99999999999989,
                0,
                0,
                9999.999999999989,
                0.0004500004647834551,
                0,
                100,
                0,
                0,
                0,
                3580.779541015625,
                0,
                0,
                1
            ],
            "name": "Right"
        },
        {
            "mesh": 0,
            "name": "Default"
        },
        {
            "children": [
                5
            ],
            "name": "Default"
        },
        {
            "mesh": 1,
            "name": "Layer 02"
        },
        {
            "mesh": 2,
            "name": "Layer 02"
        },
        {
            "mesh": 3,
            "name": "Layer 02"
        },
        {
            "mesh": 4,
            "name": "Layer 02"
        },
        {
            "mesh": 5,
            "name": "Layer 02"
        },
        {
            "mesh": 6,
            "name": "Layer 02"
        },
        {
            "children": [
                7,
                8,
                9,
                10,
                11,
                12
            ],
            "name": "Layer 02"
        },
        {
            "mesh": 7,
            "name": "Layer 03"
        },
        {
            "children": [
                14
            ],
            "name": "Layer 03"
        },
        {
            "mesh": 8,
            "name": "Layer 04"
        },
        {
            "children": [
                16
            ],
            "name": "Layer 04"
        },
        {
            "children": [
                6,
                13,
                15,
                17
            ],
            "matrix": [
                1,
                0,
                0,
                0,
                0,
                -0.999999999999999,
                9.000009307258416e-08,
                0,
                0,
                -9.000009307258416e-08,
                -0.999999999999999,
                0,
                0,
                67.4554860303836,
                7.482600608640235,
                1
            ],
            "name": "Untitled"
        },
        {
            "children": [
                18
            ],
            "matrix": [
                0.0010000000474974513,
                0,
                0,
                0,
                0,
                0.0010000000474974513,
                0,
                0,
                0,
                0,
                0.0010000000474974513,
                0,
                0,
                0,
                0,
                1
            ],
            "name": "Default"
        }
    ],
    "samplers": [
        {
            "magFilter": 9729,
            "minFilter": 9987,
            "wrapS": 10497,
            "wrapT": 10497
        }
    ],
    "scenes": [
        {
            "nodes": [
                0,
                1,
                2,
                3,
                4,
                19
            ]
        }
    ],
    "textures": [
        {
            "sampler": 0,
            "source": 0
        }
    ]
}
 